# xmcd
#
# Track frame offsets: 
#        150
#        16528
#        28836
#        43343
#        58324
#        73601
#        82736
#        97953
#        109433
#        119765
#        132778
#        147399
#        155491
#        166952
#        176712
#        187074
#        197439
#        211763
#        222352
#        232915
#        243822
#        257308
#        269089
#        281626
#        291590
#        303456
#        314225
#        324427
#
# Disc length: 4475 seconds
#
# Revision: 0
# Processed by: cddbd v1.5.2PL0 Copyright (c) Steve Scherf et al.
# Submitted via: ExactAudioCopy v1.0b3
#
DISCID=ab11791c
DTITLE=Various Artist - 101 Country Hits CD1-4
DYEAR=2009
DGENRE=Country
TTITLE0=Kenny Rogers - Lucille
TTITLE1=Billie Jo Spears - What I've Got In Mind
TTITLE2=Glen Campbell - Rhinestone Cowboy
TTITLE3=Kenny Dale - Bluest Heartache Of The Year
TTITLE4=Juice Newton - Queen Of Hearts
TTITLE5=Bob Luman - Let's Think About Livin'
TTITLE6=Patsy Riggir - Beautiful Lady
TTITLE7=Wynn Stewart - It's Such A Pretty World Today
TTITLE8=Willie Nelson - There'll Be No Teardrops Tonight
TTITLE9=Johnny Tillotson - Send Me The Pillow That You Dream On
TTITLE10=Jeannie C. Riley - Harper Valley P.T.A
TTITLE11=Johnny Cash - Guess Things Happen That Way
TTITLE12=Sammi Smith - Help Me Make It Through The Night
TTITLE13=Ned Miller - From A Jack To A King
TTITLE14=Jody Miller - Queen Of The House
TTITLE15=Ferlin Husky - Wings Of A Dove
TTITLE16=The Bellamy Brothers - If I Said You Had A Beautiful Body (Wo
TTITLE16=uld You Hold It Against Me)
TTITLE17=Mel Mcdaniel - Louisiana Saturday Night
TTITLE18=Jessi Colter - What Happened To Blue Eyes
TTITLE19=Faron Young - Hello Walls
TTITLE20=Jodie Vaughan - Lay A Little Lovin' On Me
TTITLE21=Billy "Crash" Craddock - I Cheated On A Good Woman's Love
TTITLE22=Jean Shepard - Think I'll Go Somewhere And Cry Myself To Slee
TTITLE22=p
TTITLE23=Willie Nelson - Touch Me
TTITLE24=Wanda Jackson - Right Or Wrong
TTITLE25=Ken Lemon - King Of The Road
TTITLE26=The Everly Brothers - Brand New Heartache
TTITLE27=Mitchell Torok - Caribbean
EXTD=
EXTT0=
EXTT1=
EXTT2=
EXTT3=
EXTT4=
EXTT5=
EXTT6=
EXTT7=
EXTT8=
EXTT9=
EXTT10=
EXTT11=
EXTT12=
EXTT13=
EXTT14=
EXTT15=
EXTT16=
EXTT17=
EXTT18=
EXTT19=
EXTT20=
EXTT21=
EXTT22=
EXTT23=
EXTT24=
EXTT25=
EXTT26=
EXTT27=
PLAYORDER=
